<?xml version="1.0" encoding="UTF-8"?>
<svg id="Vrstva_1" xmlns="http://www.w3.org/2000/svg" version="1.1" viewBox="0 0 16 16">
  <!-- Generator: Adobe Illustrator 30.3.0, SVG Export Plug-In . SVG Version: 2.1.3 Build 182)  -->
  <defs>
    <style>
      .st0 {
        fill: #fff;
      }

      .st1 {
        fill: #1b1918;
      }
    </style>
  </defs>
  <rect class="st1" width="16" height="16"/>
  <path class="st0" d="M11.4,9l-.8,3.1h0l-.8-3.1h0V1.6h-2.4v2.7h-2.7V1.6h-2.4v7.5h2.4v-2.9h2.7v2.9h0v5.3h1.6v-2c0-.2,0-.5,0-.7,0-.3,0-.5,0-.6,0-.2,0-.3,0-.3h0l1,3.7h1.3l1-3.7h0s0,.2,0,.3c0,.2,0,.4,0,.6,0,.3,0,.5,0,.7v2h1.7v-5.4h-2.3Z"/>
</svg>